<svg id="Layer_1" enable-background="new 0 0 512 512" height="512" viewBox="0 0 512 512" width="512" xmlns="http://www.w3.org/2000/svg"><g><g><path d="m135.844 376.155c-2.128-2.128-3.617-4.896-4.165-8.001l-16.426-93.105c-.918-5.205.971-10.51 4.973-13.963 4.003-3.454 9.527-4.545 14.542-2.874l82.152 27.379c4.479 1.494 7.995 5.009 9.488 9.488l27.379 82.152c1.671 5.015.58 10.539-2.874 14.541-3.453 4.002-8.757 5.892-13.963 4.973l-93.105-16.426c-3.105-.547-5.872-2.036-8.001-4.164z" fill="#dbeeff"/></g><path d="m236.95 396.747c5.205.918 10.51-.971 13.963-4.973 3.454-4.002 4.545-9.527 2.874-14.541l-27.379-82.152c-.747-2.24-1.999-4.238-3.624-5.864l-86.939 86.939c2.128 2.128 4.896 3.617 8.001 4.165z" fill="#c9e6ff"/><g><path d="m267.294 507.605c-1.613-1.613-2.868-3.603-3.622-5.861l-38.347-115.025-25.007-75.038-190.062-63.353c-5.85-1.95-9.912-7.284-10.235-13.444-.323-6.16 3.156-11.889 8.772-14.441l481.999-219.098c5.692-2.587 12.392-1.373 16.814 3.049 4.422 4.421 5.636 11.122 3.049 16.814l-219.097 482c-2.552 5.615-8.282 9.095-14.441 8.772-3.784-.199-7.256-1.808-9.823-4.375z" fill="#f5fafc"/></g><path d="m291.558 503.207 219.097-482c2.587-5.692 1.373-12.392-3.049-16.814l-307.288 307.288 25.007 75.038 38.347 115.025c.753 2.257 2.009 4.247 3.622 5.861 2.567 2.567 6.039 4.176 9.823 4.375 6.159.322 11.889-3.157 14.441-8.773z" fill="#dbeeff"/></g></svg>